<svg width="172" height="38" viewBox="0 0 172 38" fill="none" xmlns="http://www.w3.org/2000/svg">
<path d="M155.372 8.19141H169.49C170.789 8.19141 171.843 9.22176 171.843 10.4928V28.9037C171.843 30.1747 170.789 31.2051 169.49 31.2051H155.372C154.073 31.2051 153.019 30.1747 153.019 28.9037V10.4928C153.019 9.22176 154.073 8.19141 155.372 8.19141Z" fill="#161323"/>
<path d="M161.566 27.7541L167.031 13.6991C167.316 12.3818 167.021 11.697 166.147 11.6445H157.724V15.0754H163.056L158.235 27.7541H161.566Z" fill="white"/>
<path d="M148.312 8.19141H118.9C117.601 8.19141 116.547 9.22176 116.547 10.4928V28.9037C116.547 30.1747 117.601 31.2051 118.9 31.2051H148.312C149.612 31.2051 150.665 30.1747 150.665 28.9037V10.4928C150.665 9.22176 149.612 8.19141 148.312 8.19141Z" fill="#EF3F56"/>
<path d="M56.2428 27.89C53.4068 27.89 52 26.4422 52 23.5467V21.9794C52 19.4876 53.4243 18.2262 56.2778 18.2262H61.595V17.316C61.595 16.2051 61.0678 15.6651 60.0283 15.6651H53.002V11.8594H60.0258C63.549 11.8594 65.3281 13.644 65.3281 17.1965V27.8876H56.2428V27.89ZM61.595 21.105H56.7875C55.9954 21.105 55.6081 21.5088 55.6081 22.3163V23.26C55.6081 23.9838 55.9954 24.3542 56.7875 24.3542H61.595V21.105Z" fill="#161323"/>
<path d="M73.1672 27.8886C69.6091 27.8886 67.8325 26.1039 67.8325 22.5514V17.2142C67.8325 13.645 69.6091 11.8771 73.1672 11.8771H77.1801V6H81.0731V27.8886H73.1672ZM77.1976 15.6637H73.3047C72.2677 15.6637 71.738 16.2204 71.738 17.3146V22.4343C71.738 23.5453 72.2677 24.0852 73.3047 24.0852H77.1976V15.6637Z" fill="#161323"/>
<path d="M88.9963 27.8886C85.4382 27.8886 83.6616 26.1039 83.6616 22.5514V17.2142C83.6616 13.645 85.4382 11.8771 88.9963 11.8771H93.0118V6H96.9047V27.8886H88.9963ZM93.0118 15.6637H89.1213C88.0818 15.6637 87.5546 16.2204 87.5546 17.3146V22.4343C87.5546 23.5453 88.0818 24.0852 89.1213 24.0852H93.0118V15.6637Z" fill="#161323"/>
<path d="M103.578 27.89C100.742 27.89 99.3354 26.4422 99.3354 23.5467V21.9794C99.3354 19.4876 100.76 18.2262 103.613 18.2262H108.948V17.316C108.948 16.2051 108.421 15.6651 107.381 15.6651H100.337V11.8594H107.364C110.887 11.8594 112.664 13.644 112.664 17.1965V27.8876H103.578V27.89ZM108.93 21.105H104.123C103.331 21.105 102.944 21.5088 102.944 22.3163V23.26C102.944 23.9838 103.331 24.3542 104.123 24.3542H108.93V21.105Z" fill="#161323"/>
<path d="M132.764 27.8875H121.285V22.837C121.285 20.6654 123.131 18.8807 125.423 18.8807H128.643C129.103 18.8807 129.473 18.5272 129.473 18.09V15.9016C129.473 15.4644 129.103 15.1108 128.643 15.1108H121.302V11.9453H128.643C130.917 11.9453 132.784 13.7132 132.784 15.9016V18.09C132.784 20.2616 130.937 22.0463 128.643 22.0463H125.423C124.965 22.0463 124.595 22.3998 124.595 22.837V24.722H132.766V27.8875H132.764Z" fill="white"/>
<path d="M142.605 11.9414V18.2222H139.664C139.099 18.2222 138.625 17.785 138.625 17.2284V11.9414H135.279V18.2222C135.279 19.9901 136.776 21.4212 138.625 21.4212H142.605V27.9027H145.951V11.9414H142.605Z" fill="white"/>
<path d="M16.7089 2.91887L0.828768 29.2263C-1.52662 33.1181 1.4203 38 6.11857 38H16.0423C16.9001 38 17.6418 37.434 17.8312 36.6389L19.3431 30.3959C19.3431 29.7444 18.7998 29.2263 18.1207 29.2263H14.5948C13.1847 29.2263 12.3037 27.7677 13.0078 26.5998L20.4136 14.3207C21.1195 13.1511 22.8815 13.1511 23.5874 14.3207L30.9932 26.5998C31.6973 27.7694 30.8162 29.2263 29.4044 29.2263H25.8535C25.1744 29.2263 24.6329 29.7444 24.6329 30.3959L26.1448 36.6389C26.3324 37.434 27.0758 38 27.9319 38H37.8824C42.5789 38 45.5258 33.1318 43.1722 29.2263L27.2885 2.91887C26.1108 0.972956 24.0521 0 21.9951 0C19.9364 0 17.8812 0.972956 16.7089 2.91887Z" fill="#EF3F56"/>
</svg>
